<?xml version="1.0" encoding="UTF-8"?>
<svg version="1.1" xmlns="http://www.w3.org/2000/svg" width="384" height="384">
<path d="M0 0 C1.71337555 0.6794165 1.71337555 0.6794165 3.46136475 1.37255859 C8.6981636 3.50644249 13.91310009 5.68582962 19.11376953 7.90625 C20.23002716 8.38070557 21.34628479 8.85516113 22.49636841 9.34399414 C24.82272684 10.33304363 27.14868367 11.32303827 29.47424316 12.31396484 C32.77068302 13.71829612 36.0684172 15.11953286 39.36669922 16.51953125 C45.843984 19.26945104 52.3191254 22.0243853 58.79345703 24.78125 C59.94612061 25.27204041 61.09878418 25.76283081 62.28637695 26.26849365 C85.1981081 36.02691752 108.06877282 45.87854569 130.91845703 55.78125 C132.44026056 56.44060715 133.96207029 57.09994998 135.48388672 57.75927734 C146.46996106 62.51932892 146.46996106 62.51932892 151.26416016 64.60009766 C152.34375 65.06851074 153.42333984 65.53692383 154.53564453 66.01953125 C155.57043945 66.47021973 156.60523438 66.9209082 157.67138672 67.38525391 C160.0202597 68.39509268 162.37250781 69.38617126 164.73583984 70.36083984 C165.37248566 70.62607956 166.00913147 70.89131927 166.66506958 71.16459656 C168.44936845 71.9068299 170.23680283 72.64151251 172.02441406 73.37573242 C174.61527272 74.63400586 176.17542378 75.52655946 177.91845703 77.78125 C178.31689453 79.9375 178.31689453 79.9375 178.29345703 82.28125 C178.30119141 83.0546875 178.30892578 83.828125 178.31689453 84.625 C177.81401456 87.34646807 177.01082551 88.0031709 174.91845703 89.78125 C172.76123047 90.90039062 172.76123047 90.90039062 170.27783203 91.9375 C169.37162109 92.32035156 168.46541016 92.70320313 167.53173828 93.09765625 C166.58685547 93.48824219 165.64197266 93.87882812 164.66845703 94.28125 C163.73904297 94.67183594 162.80962891 95.06242187 161.85205078 95.46484375 C160.10053092 96.20063073 158.34774575 96.93341871 156.59326172 97.66210938 C153.35952443 99.01510789 150.13901997 100.39719006 146.91845703 101.78125 C146.79464555 107.24381275 146.70401877 112.70555488 146.64379883 118.16918945 C146.61869001 120.02675609 146.5845957 121.88422427 146.54125977 123.74145508 C146.48044579 126.41512358 146.45221183 129.08748365 146.43017578 131.76171875 C146.40436935 132.58898972 146.37856293 133.41626068 146.35197449 134.26860046 C146.34985142 138.65596105 146.45362233 140.22897981 149.38452148 143.71118164 C150.22072021 144.3943042 151.05691895 145.07742676 151.91845703 145.78125 C154.1880682 150.49241257 154.22706391 154.78051086 152.66845703 159.71875 C151.65613632 162.42623039 150.99272381 163.70698322 148.91845703 165.78125 C149.24553247 175.39304761 152.23582477 184.85061269 154.55541992 194.14575195 C155.11275613 196.38826975 155.65871641 198.63333853 156.20361328 200.87890625 C156.37546646 201.55309097 156.54731964 202.2272757 156.72438049 202.92189026 C157.8825417 207.72647372 158.3842961 211.8824571 157.91845703 216.78125 C156.33056641 219.24584961 156.33056641 219.24584961 153.91845703 220.78125 C149.77442695 221.50539473 145.64858215 221.39804319 141.44628906 221.35766602 C139.4236231 221.34378545 137.40557692 221.37789196 135.38330078 221.41601562 C134.10583984 221.41408203 132.82837891 221.41214844 131.51220703 221.41015625 C130.34367187 221.41088135 129.17513672 221.41160645 127.97119141 221.41235352 C124.91845703 220.78125 124.91845703 220.78125 122.50634766 218.24194336 C121.98234375 217.42991455 121.45833984 216.61788574 120.91845703 215.78125 C120.64195312 216.79832031 120.64195312 216.79832031 120.35986328 217.8359375 C117.62629578 226.60765188 113.16953773 233.46231769 105.28564453 238.4453125 C102.02845714 240.10793651 98.83897345 241.51369026 95.32470703 242.53515625 C91.96633592 244.27431272 91.26503694 246.32803358 89.66845703 249.71875 C86.20935546 256.52415635 82.03325068 262.0900127 76.91845703 267.78125 C76.33193359 268.43867188 75.74541016 269.09609375 75.14111328 269.7734375 C55.04309028 291.05369715 21.07335417 301.38623955 -7.50683594 302.30664062 C-41.26217458 302.69062592 -74.46377594 292.57060802 -99.20654297 269.09375 C-117.08154297 250.64120557 -117.08154297 250.64120557 -117.08154297 241.78125 C-118.62841797 241.6265625 -118.62841797 241.6265625 -120.20654297 241.46875 C-127.87611285 240.10801986 -133.61568476 235.95709533 -138.53076172 230.03515625 C-144.89747693 220.83878984 -146.52483208 208.98394313 -144.61279297 198.1171875 C-142.71137432 190.62469259 -139.06940394 186.19696738 -133.14404297 181.40625 C-129.71844003 179.58858313 -126.9030226 179.2414518 -123.08154297 178.78125 C-123.11634766 177.78609375 -123.15115234 176.7909375 -123.18701172 175.765625 C-123.79023264 150.52833125 -119.20160075 126.97705653 -101.44873047 108.05859375 C-75.58431071 83.17582689 -34.00902096 80.11116384 -0.19775391 80.70117188 C27.68327728 81.41763836 61.45955077 91.120273 81.91845703 110.78125 C98.1670317 129.49362006 99.41654636 154.20247351 100.91845703 177.78125 C101.9327478 178.14911621 101.9327478 178.14911621 102.9675293 178.52441406 C110.57251503 181.3991934 115.07717718 184.46564527 118.97705078 191.76171875 C120.45409532 195.30238533 121.10338885 198.7268944 121.48876953 202.53515625 C121.57143066 203.33381104 121.6540918 204.13246582 121.73925781 204.95532227 C121.82796143 205.85915649 121.82796143 205.85915649 121.91845703 206.78125 C123.0646157 201.74737293 124.20373191 196.7119728 125.33642578 191.67504883 C125.72252606 189.96270059 126.11052819 188.25078 126.50048828 186.53930664 C127.06152015 184.07548939 127.61563561 181.61020196 128.16845703 179.14453125 C128.34344727 178.38288162 128.5184375 177.62123199 128.69873047 176.83650208 C129.92755144 171.35554413 129.92755144 171.35554413 129.91845703 165.78125 C128.02616437 163.14500566 128.02616437 163.14500566 125.91845703 160.78125 C124.45805777 156.40005222 123.96872253 152.09482125 125.74267578 147.7734375 C127.22197117 145.14480108 128.78420102 142.91550601 130.91845703 140.78125 C131.163614 138.27749532 131.29179361 135.87575521 131.33251953 133.3671875 C131.35188568 132.63754791 131.37125183 131.90790833 131.39120483 131.15615845 C131.45104126 128.82297498 131.49740126 126.48974227 131.54345703 124.15625 C131.58163317 122.57549918 131.62068468 120.99476924 131.66064453 119.4140625 C131.75674581 115.5366277 131.84076115 111.65909551 131.91845703 107.78125 C131.31485352 108.05799561 130.71125 108.33474121 130.08935547 108.61987305 C110.50285221 117.58986429 110.50285221 117.58986429 102.79345703 120.90625 C101.92462891 121.28007812 101.05580078 121.65390625 100.16064453 122.0390625 C97.91845703 122.78125 97.91845703 122.78125 93.91845703 122.78125 C92.24267578 120.65625 92.24267578 120.65625 90.60595703 117.78125 C77.00130433 95.29898495 52.05958436 86.92523128 27.65673828 80.91796875 C26.85187988 80.72509277 26.04702148 80.5322168 25.21777344 80.33349609 C23.16935434 79.84151011 21.12735301 79.32297568 19.08642578 78.80078125 C-15.93247906 71.11898235 -61.26475807 76.77378218 -91.82714844 95.87207031 C-102.15443334 102.75692691 -110.67698674 111.15722144 -117.08154297 121.78125 C-122.58579769 121.22791222 -127.03636357 119.80184245 -132.09326172 117.60546875 C-133.23078133 117.12328636 -133.23078133 117.12328636 -134.39128113 116.63136292 C-136.85401789 115.58512472 -139.31152336 114.52717751 -141.76904297 113.46875 C-143.47268691 112.7418216 -145.17662846 112.01559028 -146.88085938 111.29003906 C-150.31388416 109.82680859 -153.74475944 108.3587076 -157.17382812 106.88623047 C-161.62142512 104.97676762 -166.07507595 103.08189849 -170.53076172 101.19140625 C-173.00638322 100.1388665 -175.48148701 99.08511985 -177.95654297 98.03125 C-179.07633545 97.55518311 -180.19612793 97.07911621 -181.34985352 96.58862305 C-198.05870603 89.43100432 -198.05870603 89.43100432 -201.08154297 85.78125 C-201.64404297 82.40625 -201.64404297 82.40625 -201.08154297 78.78125 C-195.81615984 73.16110701 -188.7397039 70.73147185 -181.76904297 67.78125 C-180.36655752 67.17855005 -178.96447146 66.57492006 -177.56274414 65.97045898 C-173.60777568 64.26818344 -169.64732674 62.57899676 -165.68591309 60.89178467 C-161.09880507 58.93578677 -156.51619741 56.96929128 -151.93310547 55.00390625 C-145.84011575 52.39152643 -139.74666399 49.7802505 -133.65112305 47.17382812 C-119.03687122 40.9223433 -104.45007821 34.60953651 -89.87460327 28.26821899 C-58.72825447 14.71852974 -58.72825447 14.71852974 -43.08154297 8.15625 C-41.9154248 7.66640625 -40.74930664 7.1765625 -39.54785156 6.671875 C-36.3987208 5.35876016 -33.24346691 4.06323206 -30.08154297 2.78125 C-28.92847656 2.31315918 -27.77541016 1.84506836 -26.58740234 1.36279297 C-25.44078125 0.90791504 -24.29416016 0.45303711 -23.11279297 -0.015625 C-22.08734375 -0.42393555 -21.06189453 -0.83224609 -20.00537109 -1.25292969 C-12.81218884 -3.62903431 -6.94516611 -2.76113445 0 0 Z " fill="#871BE2" transform="translate(203.08154296875,54.21875)"/>
<path d="M0 0 C12.64125896 4.39079492 24.03529105 9.69316611 34.0625 18.75 C34.71992188 19.3378125 35.37734375 19.925625 36.0546875 20.53125 C40.24508756 24.48785091 43.27611117 28.72090797 46.0625 33.75 C46.42214844 34.37648437 46.78179687 35.00296875 47.15234375 35.6484375 C49.73468421 40.42333118 51.15372381 45.26575257 52.44921875 50.52734375 C52.85346192 52.70548077 52.85346192 52.70548077 54.0625 53.75 C55.64377513 53.88177293 57.22786635 53.98045536 58.8125 54.0625 C62.16218616 54.38789808 64.03298947 54.73462993 67.0625 56.3125 C70.4976963 60.49914549 70.8529006 64.86360539 71.4375 70.125 C70.78184356 76.46301225 68.6441862 81.8033093 64.625 86.75 C61.383595 89.27987707 59.00207383 90.9119065 54.76953125 90.55859375 C51.72128977 90.41563538 49.87072897 90.50238807 47.0625 91.75 C44.38281111 95.8738326 42.69318792 100.25144237 40.88476562 104.80810547 C33.45735126 122.34897657 16.8836242 133.27138801 0.0625 140.75 C-8.98013814 144.28972925 -18.44101231 147.9432865 -28.25 147.8125 C-29.13300781 147.80347656 -30.01601562 147.79445313 -30.92578125 147.78515625 C-31.92158203 147.76775391 -31.92158203 147.76775391 -32.9375 147.75 C-32.9375 148.41 -32.9375 149.07 -32.9375 149.75 C-36.97188436 149.80026066 -41.00614203 149.8361162 -45.04077148 149.85986328 C-46.4070148 149.86978563 -47.77323769 149.88332786 -49.1394043 149.90087891 C-58.28096627 150.01519046 -66.94908969 149.45157293 -75.9375 147.75 C-75.9375 147.09 -75.9375 146.43 -75.9375 145.75 C-77.5771875 145.5953125 -77.5771875 145.5953125 -79.25 145.4375 C-100.14314992 142.66148707 -119.43308801 130.1053671 -132.35546875 113.67578125 C-136.73789815 107.74666414 -140.06819457 101.88684887 -142.28125 94.796875 C-142.75613934 92.77887261 -142.75613934 92.77887261 -143.9375 91.75 C-145.49694897 91.59141197 -147.0605879 91.47321421 -148.625 91.375 C-154.75126895 90.79029912 -158.36002541 89.39917798 -162.6875 84.875 C-167.63307063 78.00615191 -168.06067045 71.04052089 -166.9375 62.75 C-165.01981592 59.08522336 -162.63528823 56.59889411 -158.9375 54.75 C-157.40081135 54.52532169 -155.85781946 54.34203195 -154.3125 54.1875 C-153.49523437 54.10371094 -152.67796875 54.01992187 -151.8359375 53.93359375 C-151.20945312 53.87300781 -150.58296875 53.81242187 -149.9375 53.75 C-149.69515625 52.6878125 -149.4528125 51.625625 -149.203125 50.53125 C-145.18390523 33.363759 -137.95345593 20.99326829 -122.9375 10.75 C-119.35315755 8.56491995 -115.70127974 6.60687213 -111.9375 4.75 C-111.19886719 4.38132813 -110.46023437 4.01265625 -109.69921875 3.6328125 C-98.31792858 -1.73532802 -87.40732702 -3.90505319 -74.9375 -4.25 C-75.22625 -3.54875 -75.515 -2.8475 -75.8125 -2.125 C-79.12010154 6.3277595 -81.27409462 16.83892677 -77.8125 25.6875 C-72.39228533 34.54051729 -68.29179532 39.15611082 -57.9375 41.75 C-49.24264135 42.54295636 -42.39986412 42.43226768 -34.9375 37.75 C-34.2775 37.75 -33.6175 37.75 -32.9375 37.75 C-32.5353125 36.9146875 -32.5353125 36.9146875 -32.125 36.0625 C-30.9375 33.75 -30.9375 33.75 -29.3125 31.4375 C-27.537333 27.9678554 -27.59309603 25.60732449 -27.9375 21.75 C-28.94607837 18.45893326 -28.94607837 18.45893326 -30.9375 15.75 C-34.39571402 15.49996036 -34.39571402 15.49996036 -37.9375 15.75 C-40.35042805 18.16292805 -40.17177014 18.89117362 -40.3125 22.1875 C-40.69982394 26.49647887 -40.69982394 26.49647887 -42.8125 28.75 C-48.25948753 31.31328825 -52.77810692 31.34569464 -58.5625 29.75 C-62.99921925 27.12083304 -65.16887114 24.59821508 -66.9375 19.75 C-67.82876691 14.7197436 -68.05262774 10.06017931 -65.79296875 5.37890625 C-51.49498017 -14.57791687 -20.26527 -6.67764155 0 0 Z " fill="#FDFCFE" transform="translate(238.9375,191.25)"/>
<path d="M0 0 C4.77121167 0.70394926 5.99840684 2.35398747 9.125 5.80859375 C12.9344568 9.76795973 17.4847443 11.06918929 22.8125 11.5625 C23.69035156 11.65015625 24.56820312 11.7378125 25.47265625 11.828125 C33.61024354 12.29012996 39.24330558 10.39878623 45.8125 5.5625 C46.555 4.61375 47.2975 3.665 48.0625 2.6875 C49.8125 0.5625 49.8125 0.5625 53.375 0.0625 C56.8125 0.5625 56.8125 0.5625 58.8125 1.625 C60.54457781 4.98090075 59.86750423 6.9872079 58.8125 10.5625 C53.55709046 18.98073959 45.1163637 22.95787312 35.8125 25.5625 C23.89215782 26.71217767 13.00096734 25.80597059 3.01171875 18.51953125 C0.78948492 16.6221652 -1.28961948 14.78405006 -3.1875 12.5625 C-3.1875 11.9025 -3.1875 11.2425 -3.1875 10.5625 C-3.8475 10.5625 -4.5075 10.5625 -5.1875 10.5625 C-5.3828125 4.5078125 -5.3828125 4.5078125 -5.1875 2.5625 C-3.1875 0.5625 -3.1875 0.5625 0 0 Z " fill="#8D23E9" transform="translate(164.1875,292.4375)"/>
<path d="M0 0 C4.35894322 2.27641681 8.12907269 4.62548101 10.49609375 9.05078125 C10.97923766 11.96088063 10.8406641 14.04809677 10.49609375 17.05078125 C6.97036568 19.40126663 5.6459573 19.71475942 1.49609375 19.05078125 C-0.17057292 17.05078125 -1.83723958 15.05078125 -3.50390625 13.05078125 C-6.50390625 12.13411458 -6.50390625 12.13411458 -9.50390625 13.05078125 C-12.3380178 15.38427325 -12.3380178 15.38427325 -14.50390625 18.05078125 C-15.50390625 19.05078125 -15.50390625 19.05078125 -18.94140625 19.30078125 C-20.11703125 19.21828125 -21.29265625 19.13578125 -22.50390625 19.05078125 C-25.03994769 15.24671909 -25.10589438 13.56569221 -24.50390625 9.05078125 C-19.21197058 0.14573087 -9.86174207 -3.73853873 0 0 Z " fill="#8E25E9" transform="translate(241.50390625,250.94921875)"/>
<path d="M0 0 C3.53776106 2.31072562 5.86322153 4.22256667 8.22265625 7.76171875 C8.65048691 10.56762111 8.45096327 12.88505025 8.22265625 15.76171875 C4.69692818 18.11220413 3.3725198 18.42569692 -0.77734375 17.76171875 C-2.44401042 15.76171875 -4.11067708 13.76171875 -5.77734375 11.76171875 C-8.77734375 10.84505208 -8.77734375 10.84505208 -11.77734375 11.76171875 C-14.6114553 14.09521075 -14.6114553 14.09521075 -16.77734375 16.76171875 C-17.77734375 17.76171875 -17.77734375 17.76171875 -21.21484375 18.01171875 C-22.39046875 17.92921875 -23.56609375 17.84671875 -24.77734375 17.76171875 C-27.31338519 13.95765659 -27.37933188 12.27662971 -26.77734375 7.76171875 C-21.16788624 -1.5623628 -9.99908982 -4.45810334 0 0 Z " fill="#8D22E9" transform="translate(156.77734375,252.23828125)"/>
<path d="M0 0 C4.01371187 7.08302095 4.30687619 16.0212191 4 24 C3.67 24 3.34 24 3 24 C2.67 22.35 2.34 20.7 2 19 C1.67 19 1.34 19 1 19 C0.34513908 12.63849395 -0.12068471 6.39628979 0 0 Z " fill="#400D71" transform="translate(298,192)"/>
<path d="M0 0 C0.66 0.33 1.32 0.66 2 1 C-2.95 5.95 -7.9 10.9 -13 16 C-13 10.79628205 -8.49504984 7.5790344 -5 4 C-3.37707762 2.6137538 -1.7331451 1.24569804 0 0 Z " fill="#E2CFF8" transform="translate(113,204)"/>
<path d="M0 0 C0.33 0 0.66 0 1 0 C1.33 2.97 1.66 5.94 2 9 C2.33 9 2.66 9 3 9 C3.33 12.96 3.66 16.92 4 21 C0 17 0 17 -0.45410156 14.98535156 C-0.4331543 14.2940918 -0.41220703 13.60283203 -0.390625 12.890625 C-0.37773437 12.13652344 -0.36484375 11.38242187 -0.3515625 10.60546875 C-0.31804687 9.82816406 -0.28453125 9.05085938 -0.25 8.25 C-0.23195313 7.45722656 -0.21390625 6.66445313 -0.1953125 5.84765625 C-0.14833082 3.89791652 -0.07659044 1.94880122 0 0 Z " fill="#390C68" transform="translate(323,252)"/>
<path d="M0 0 C0.33 0 0.66 0 1 0 C2.40609911 6.00787801 1.59268688 10.3920297 -1 16 C-1.66 16.66 -2.32 17.32 -3 18 C-3.69748583 19.31747324 -4.36959957 20.64914193 -5 22 C-5.42399682 18.39602707 -5.12037112 17.17303348 -3 14.125 C-0.60778263 10.38716036 -0.75811254 8.35397434 -1 4 C-0.5 1.5625 -0.5 1.5625 0 0 Z " fill="#2D0850" transform="translate(355,202)"/>
<path d="M0 0 C0.66 0 1.32 0 2 0 C0.52278578 3.45201639 -1.43794001 5.64961936 -4.125 8.25 C-4.84945312 8.95640625 -5.57390625 9.6628125 -6.3203125 10.390625 C-6.87460938 10.92171875 -7.42890625 11.4528125 -8 12 C-8.66 11.67 -9.32 11.34 -10 11 C-8.52116808 9.35386588 -7.04192523 7.70810092 -5.5625 6.0625 C-4.73878906 5.14597656 -3.91507812 4.22945312 -3.06640625 3.28515625 C-1 1 -1 1 0 0 Z " fill="#6814B9" transform="translate(105,159)"/>
<path d="M0 0 C0.33 0 0.66 0 1 0 C1.5321441 2.08047297 2.05031786 4.16452293 2.5625 6.25 C2.85253906 7.41015625 3.14257812 8.5703125 3.44140625 9.765625 C3.95179964 12.72090983 4.02996165 14.24434101 3 17 C3 16.01 3 15.02 3 14 C2.34 14 1.68 14 1 14 C-1.48063781 4.58997722 -1.48063781 4.58997722 0 0 Z " fill="#450B7E" transform="translate(352,229)"/>
<path d="M0 0 C0.33 0.66 0.66 1.32 1 2 C-0.60875 2.12375 -0.60875 2.12375 -2.25 2.25 C-6.2738451 3.05476902 -7.48169253 3.87729874 -10 7 C-10.66 6.67 -11.32 6.34 -12 6 C-7.99402755 0.79223581 -6.57420945 -0.1429176 0 0 Z " fill="#E2CDF8" transform="translate(238,263)"/>
<path d="M0 0 C0.33 0.66 0.66 1.32 1 2 C-0.60875 2.12375 -0.60875 2.12375 -2.25 2.25 C-6.2738451 3.05476902 -7.48169253 3.87729874 -10 7 C-10.66 6.67 -11.32 6.34 -12 6 C-7.99402755 0.79223581 -6.57420945 -0.1429176 0 0 Z " fill="#E1CBF8" transform="translate(151,263)"/>
<path d="M0 0 C4.63425362 -0.32332002 7.28683289 0.1355568 11 3 C11.33 3.99 11.66 4.98 12 6 C10.55903414 5.57405412 9.12231288 5.13373367 7.6875 4.6875 C6.88699219 4.44386719 6.08648437 4.20023438 5.26171875 3.94921875 C2.90035427 2.95817977 1.66120007 1.91925057 0 0 Z " fill="#531092" transform="translate(5,142)"/>
<path d="M0 0 C-1 3 -1 3 -3.5 4.875 C-6.31924232 7.27135597 -6.69973137 8.3967764 -7 12 C-7.33 12 -7.66 12 -8 12 C-8.375 8.8125 -8.375 8.8125 -8 5 C-5.91444487 2.39949299 -3.48957276 0 0 0 Z " fill="#6A19B6" transform="translate(10,128)"/>
<path d="M0 0 C6.625 -0.125 6.625 -0.125 10 1 C10 1.66 10 2.32 10 3 C10.66 3.33 11.32 3.66 12 4 C7.6822542 3.49202991 3.96697886 2.80317221 0 1 C0 0.67 0 0.34 0 0 Z " fill="#4C0C88" transform="translate(141,346)"/>
<path d="M0 0 C1.051875 0.12375 2.10375 0.2475 3.1875 0.375 C2.383125 0.7153125 2.383125 0.7153125 1.5625 1.0625 C-1.59750863 2.80882056 -4.0801983 5.0152849 -6.8125 7.375 C-7.4725 7.045 -8.1325 6.715 -8.8125 6.375 C-4.75096154 0.46730769 -4.75096154 0.46730769 0 0 Z " fill="#9946EB" transform="translate(217.8125,292.625)"/>
<path d="M0 0 C-2.39763185 2.39763185 -3.33273498 2.34280586 -6.625 2.625 C-7.44226563 2.69976562 -8.25953125 2.77453125 -9.1015625 2.8515625 C-9.72804688 2.90054688 -10.35453125 2.94953125 -11 3 C-7.74003139 -0.25996861 -4.40088745 -1.46696248 0 0 Z " fill="#6613B4" transform="translate(137,145)"/>
<path d="M0 0 C0.66 0 1.32 0 2 0 C0.70700306 2.88437779 -0.65941363 4.87219421 -3 7 C-3.66 6.67 -4.32 6.34 -5 6 C-3.38405168 3.95880212 -1.7143618 1.95927063 0 0 Z " fill="#6916B8" transform="translate(67,238)"/>
<path d="M0 0 C0.33 0.99 0.66 1.98 1 3 C-2.3 2.67 -5.6 2.34 -9 2 C-5.23312136 0.11656068 -3.97041037 -0.22057835 0 0 Z " fill="#490A82" transform="translate(171,351)"/>
<path d="M0 0 C2.15377564 2.62198774 3.40072174 4.64404172 4 8 C3.01 8 2.02 8 1 8 C0.26919734 6.02253397 -0.39421747 4.01927511 -1 2 C-0.67 1.34 -0.34 0.68 0 0 Z " fill="#4E0C8D" transform="translate(292,177)"/>
</svg>
